REM MD5 1cb54c8e0107a1579cae74af56f3d9c7
FILE "Chaos Break (Japan).bin" BINARY
  TRACK 01 MODE2/2352
    INDEX 01 00:00:00
  TRACK 02 AUDIO
    INDEX 00 03:43:04
    INDEX 01 03:45:04
  TRACK 03 AUDIO
    INDEX 00 64:11:07
    INDEX 01 64:13:07
REM LEADOUT 67:13:09
